PathFileType	4	(X/Y/Z)	D:\TRACE\spotREDO_2-26-24\spot_Both_Motion_3_4-platform.trc
DataRate	CameraRate	NumFrames	NumMarkers	Units	OrigDataRate	OrigDataStartFrame	OrigNumFrames
100.00	100.00	      42	5	mm	100.00	876	      7000
Frame#	Time	Left_Front			Right_Front			Left_Aft			Right_Aft			Post			
		X1	Y1	Z1	X2	Y2	Z2	X3	Y3	Z3	X4	Y4	Z4	X5	Y5	Z5	

876	8.750	-700.44464	-32.95330	-582.56451	714.48792	-19.99666	-497.73532	-772.45679	33.56639	634.31006	796.77533	40.81672	639.73163	-5.60269	572.61749	-1018.85205	
877	8.760	-700.28723	-33.04998	-582.51971	714.58356	-19.96426	-497.82797	-772.27521	33.62721	634.34186	796.99213	40.98459	639.77386	-5.52088	572.46338	-1018.87048	
878	8.770	-699.92828	-33.27884	-582.58130	714.68445	-20.07328	-497.81158	-772.11084	33.71712	634.28027	797.14880	41.03029	639.68787	-5.49890	572.23730	-1018.99615	
879	8.780	-699.63300	-33.48993	-582.67322	714.83759	-20.18873	-497.90051	-771.97583	33.77091	634.27832	797.34625	41.18627	639.65607	-5.36080	572.00226	-1019.13312	
880	8.790	-699.48712	-33.49905	-582.66632	714.96820	-20.41228	-497.91370	-771.72180	33.91410	634.20599	797.65076	41.33471	639.63281	-5.20251	571.79633	-1019.26477	
881	8.800	-699.38898	-33.53969	-582.61981	715.15594	-20.38956	-497.87680	-771.48523	34.07146	634.15234	797.86859	41.49734	639.58875	-4.99713	571.65173	-1019.32410	
882	8.810	-699.28754	-33.55206	-582.65210	715.24420	-20.40694	-497.87692	-771.32202	34.26454	634.10333	798.03931	41.68339	639.48199	-4.85864	571.57379	-1019.33240	
883	8.820	-699.18408	-33.60612	-582.59698	715.58588	-20.75112	-497.82809	-771.12195	34.32409	634.08423	798.29578	41.78598	639.42944	-4.77969	571.42621	-1019.39801	
884	8.830	-699.09314	-33.67840	-582.57635	715.76660	-20.87000	-497.85223	-770.97711	34.34924	634.05737	798.32764	41.87296	639.31763	-4.54733	571.09521	-1019.50897	
885	8.840	-698.81110	-33.97787	-582.63666	715.85040	-21.02390	-497.93665	-770.77307	34.38157	634.06421	798.53534	42.01298	639.22150	-4.24896	570.51654	-1019.92963	
886	8.850	-698.58820	-34.10263	-582.63196	716.05786	-21.14243	-498.01443	-770.39917	34.59983	634.14606	798.83374	42.09755	639.23877	-3.88257	570.25684	-1020.19287	
887	8.860	-698.38788	-34.15763	-582.67450	716.32281	-21.04594	-498.04160	-770.26239	34.74271	634.11212	799.15820	42.33694	639.27679	-3.87289	570.21991	-1020.27063	
888	8.870	-698.11591	-34.34637	-582.66333	716.74329	-21.11112	-498.08130	-770.08893	34.81342	633.87860	799.10736	42.56183	639.31714	-3.55917	569.98145	-1020.46558	
889	8.880	-697.92908	-34.45053	-582.67493	717.06366	-21.42186	-498.23071	-769.96576	34.93921	633.77936	799.25854	42.79031	639.34070	-3.34977	569.79266	-1020.65875	
890	8.890	-697.43970	-34.93853	-582.51172	717.23657	-21.49110	-498.22037	-769.61896	35.19901	633.67261	799.64594	42.96336	639.34784	-3.39059	569.53925	-1020.83484	
891	8.900	-697.37872	-35.15081	-582.88782	717.18518	-21.64028	-498.39523	-769.42084	35.31324	633.66144	800.14313	43.08921	639.21667	-3.19979	569.22040	-1021.06982	
892	8.910	-697.16876	-35.22333	-582.95972	717.36615	-21.94697	-498.39719	-769.11963	35.46420	633.64807	800.40137	43.16187	639.11835	-2.61632	568.81311	-1021.50806	
893	8.920	-696.92963	-35.29411	-582.97034	717.59784	-22.00591	-498.38428	-768.91595	35.65457	633.64783	800.72034	43.42697	638.99255	-2.21927	568.37512	-1021.62195	
894	8.930	-696.76251	-35.39342	-582.99377	717.77704	-22.00548	-498.38004	-768.83899	35.75430	633.59393	800.94141	43.65804	638.88385	-2.10740	568.25543	-1021.69916	
895	8.940	-696.55536	-35.57514	-582.99200	718.05225	-22.26206	-498.30426	-768.63208	36.01963	633.44037	801.06378	43.70647	638.82947	-1.79928	568.07336	-1021.81494	
896	8.950	-696.28125	-35.93791	-583.05212	718.18536	-22.37572	-498.44067	-768.51929	36.23675	633.30334	801.08429	43.77305	638.76947	-1.58953	567.86932	-1021.96606	
897	8.960	-696.03827	-36.02743	-583.11957	718.29297	-22.56213	-498.47037	-768.22827	36.54809	633.30511	801.17609	43.79312	638.78833	-1.48429	567.60028	-1022.06744	
898	8.970	-695.79883	-36.04528	-583.08862	718.55646	-22.61677	-498.45676	-767.93585	36.70260	633.28351	801.32013	43.90429	638.75891	-1.36112	567.25848	-1022.04913	
899	8.980	-695.69556	-36.03283	-583.15277	719.06323	-22.86663	-498.46860	-767.73810	36.82761	633.23456	801.61481	44.17382	638.67426	-1.32323	566.95593	-1022.47461	
900	8.990	-695.54608	-36.04831	-583.18549	718.99384	-22.67131	-498.61996	-767.56720	36.98148	633.21063	801.88525	44.33934	638.53796	-1.19341	566.57959	-1022.73871	
901	9.000	-695.28101	-36.34290	-583.23138	719.45331	-23.26958	-498.57654	-767.33783	37.06763	633.17096	802.15387	44.50755	638.47656	-0.77220	566.26172	-1023.16113	
902	9.010	-695.07861	-36.61069	-583.21735	719.66077	-23.35112	-498.57077	-767.19031	37.19226	633.09302	802.43799	44.72541	638.42145	-0.72315	566.11804	-1023.26923	
903	9.020	-694.81409	-36.74456	-583.22760	719.90356	-23.41867	-498.62839	-766.89490	37.39836	633.02539	802.74554	44.90117	638.35242	-0.52430	565.87531	-1023.46796	
904	9.030	-694.48584	-36.79585	-583.28809	719.98828	-23.26622	-498.74457	-766.62415	37.67585	633.03687	803.04901	45.22001	638.23798	-0.32421	565.61835	-1023.63483	
905	9.040	-694.22620	-36.98293	-583.27234	720.11926	-23.38704	-498.74951	-766.40570	37.79700	633.03748	803.26221	45.39856	638.27679	-0.24361	565.48187	-1023.78223	
906	9.050	-694.04486	-37.18510	-583.24603	720.33051	-23.63948	-498.72482	-766.26782	37.88345	633.03339	803.29236	45.58706	638.16357	-0.02876	565.08832	-1024.10522	
907	9.060	-693.49689	-37.54074	-583.11505	720.50336	-23.92847	-498.80286	-766.14856	38.02912	633.01459	803.35022	45.66899	638.13684	0.51099	564.60077	-1024.40332	
908	9.070	-693.58411	-37.67307	-583.45923	720.65509	-24.02826	-498.78247	-765.93018	38.15952	632.93091	803.53241	45.65618	638.13562	1.29298	564.32886	-1024.28894	
909	9.080	-693.39587	-37.76888	-583.54565	721.11072	-24.30551	-498.85269	-765.67120	38.29615	632.83313	803.67377	45.87248	638.05542	1.41055	564.26794	-1024.38196	
910	9.090	-693.24274	-37.75239	-583.55890	721.16931	-24.30834	-498.85318	-765.42694	38.43411	632.83905	803.81281	45.98751	638.04578	1.23393	564.20471	-1024.77490	
911	9.100	-693.08405	-37.83277	-583.62158	721.50049	-24.41360	-498.82605	-765.18622	38.57998	632.74799	804.08057	46.05164	638.01813	1.51696	563.97858	-1024.85608	
912	9.110	-692.91656	-38.02312	-583.64325	721.76013	-24.47040	-498.80856	-764.81219	38.68220	632.78058	804.36609	46.12682	637.98431	1.71551	563.76294	-1024.87219	
913	9.120	-692.82178	-38.08018	-583.63080	721.98041	-24.60790	-498.84128	-764.87933	38.75040	632.69464	804.55597	46.24304	637.93500	1.82942	563.51379	-1024.89270	
914	9.130	-692.68079	-38.25184	-583.71075	722.15240	-24.76992	-498.89316	-764.73328	38.87209	632.61670	804.78796	46.42103	637.97223	1.83605	563.41986	-1024.90552	
915	9.140	-692.53430	-38.27692	-583.69666	722.31360	-24.85682	-498.90591	-764.50464	38.99636	632.59558	804.91266	46.56207	637.98621	1.90684	563.26855	-1024.97156	
916	9.150	-692.41827	-38.31263	-583.74854	722.32623	-24.75001	-498.99637	-764.29333	39.18877	632.44403	805.24335	46.76377	638.00549	2.03912	563.12866	-1025.05493	
917	9.160	-692.19910	-38.40526	-583.68384	722.49579	-24.77527	-499.00620	-764.23743	39.26256	632.37329	805.42023	46.89813	637.98706	2.36210	562.75031	-1025.26917	
